<?xml version="1.0" encoding="UTF-8" standalone="no"?>
<svg width="375px" height="667px" viewBox="0 0 375 667" version="1.1" xmlns="http://www.w3.org/2000/svg" xmlns:xlink="http://www.w3.org/1999/xlink" style="background: #FFFFFF;">
    <!-- Generator: Sketch 41.1 (35376) - http://www.bohemiancoding.com/sketch -->
    <title>Add Instruments LOADING</title>
    <desc>Created with Sketch.</desc>
    <defs>
        <filter x="-50%" y="-50%" width="200%" height="200%" filterUnits="objectBoundingBox" id="filter-1">
            <feGaussianBlur stdDeviation="21.9640395 0" in="SourceGraphic"></feGaussianBlur>
        </filter>
    </defs>
    <g id="Page-1" stroke="none" stroke-width="1" fill="none" fill-rule="evenodd">
        <g id="Add-Instruments-LOADING">
            <text id="Back" font-family="icomoon" font-size="20" font-weight="normal" fill="#4990E2">
                <tspan x="21" y="49"></tspan>
            </text>
            <g id="Lines" transform="translate(21.000000, 149.000000)" stroke="#E5E5E5" stroke-linecap="square">
                <path d="M0,84.5 L333.5,84.5" id="Line"></path>
                <path d="M0,167.5 L333.5,167.5" id="Line"></path>
                <path d="M0,1.5 L333.5,1.5" id="Line"></path>
                <path d="M0,333.5 L333.5,333.5" id="Line"></path>
                <path d="M0,416.5 L333.5,416.5" id="Line"></path>
                <path d="M0,250.5 L333.5,250.5" id="Line"></path>
                <path d="M0,1.5 L333.5,1.5" id="Line"></path>
            </g>
            <g id="Grey-Blocks" transform="translate(21.000000, 89.000000)" fill="#F0F0F0">
                <rect id="Rectangle-4" x="0" y="0" width="102" height="15"></rect>
                <rect id="Rectangle-4" x="0" y="25" width="152" height="15"></rect>
                <rect id="Rectangle-4" x="292" y="0" width="40" height="40"></rect>
                <rect id="Rectangle-4" x="0" y="83" width="102" height="15"></rect>
                <rect id="Rectangle-4" x="0" y="108" width="152" height="15"></rect>
                <rect id="Rectangle-4" x="292" y="83" width="40" height="40"></rect>
                <rect id="Rectangle-4" x="1" y="166" width="102" height="15"></rect>
                <rect id="Rectangle-4" x="1" y="191" width="152" height="15"></rect>
                <rect id="Rectangle-4" x="293" y="166" width="40" height="40"></rect>
                <rect id="Rectangle-4" x="1" y="249" width="102" height="15"></rect>
                <rect id="Rectangle-4" x="1" y="274" width="152" height="15"></rect>
                <rect id="Rectangle-4" x="293" y="249" width="40" height="40"></rect>
                <rect id="Rectangle-4" x="0" y="332" width="102" height="15"></rect>
                <rect id="Rectangle-4" x="0" y="357" width="152" height="15"></rect>
                <rect id="Rectangle-4" x="292" y="332" width="40" height="40"></rect>
                <rect id="Rectangle-4" x="1" y="415" width="102" height="15"></rect>
                <rect id="Rectangle-4" x="1" y="440" width="152" height="15"></rect>
                <rect id="Rectangle-4" x="293" y="415" width="40" height="40"></rect>
                <rect id="Rectangle-4" x="1" y="498" width="102" height="15"></rect>
                <rect id="Rectangle-4" x="1" y="523" width="152" height="15"></rect>
                <rect id="Rectangle-4" x="293" y="498" width="40" height="40"></rect>
            </g>
            <rect id="Rectangle" fill-opacity="0.4" fill="#ffffff" filter="url(#filter-1)" x="15" y="75" width="44" height="566">
                <animate attributeName="x" from="0" to="200"
                dur="1s" repeatCount="indefinite"  /> 
          </rect>
          <rect id="Rectangle" fill-opacity="0.4" fill="#ffffff" filter="url(#filter-1)" y="75" width="34" height="566">
                <animate attributeName="x" from="280" to="380"
                dur="1s" repeatCount="indefinite"  /> 
          </rect>
        </g>
    </g>
</svg>